<svg width="100" height="100" viewBox="0 0 100 100" fill="none" xmlns="http://www.w3.org/2000/svg">
<g clip-path="url(#clip0_253_164)">
<path d="M50 0C77.6142 0 100 22.3858 100 50C100 77.6142 77.6142 100 50 100C22.3858 100 0 77.6142 0 50C0 22.3858 22.3858 0 50 0ZM49.274 36.0465C47.3475 36.0465 45.7857 37.6083 45.7857 39.5349V77.3257C45.7857 79.2523 47.3475 80.814 49.274 80.814C51.2006 80.814 52.7624 79.2523 52.7624 77.3257V39.5349C52.7624 37.6083 51.2006 36.0465 49.274 36.0465ZM49.4145 22.093C46.8457 22.093 44.7633 24.1754 44.7633 26.7442C44.7633 29.313 46.8457 31.3953 49.4145 31.3953C51.9833 31.3953 54.0657 29.313 54.0657 26.7442C54.0657 24.1754 51.9833 22.093 49.4145 22.093Z" fill="white"/>
</g>
<defs>
<clipPath id="clip0_253_164">
<rect width="100" height="100" fill="white"/>
</clipPath>
</defs>
</svg>
