<svg width="24" height="23" viewBox="0 0 24 23" fill="none" xmlns="http://www.w3.org/2000/svg">
<path d="M2.8743 6.63827H4.60195C5.1444 6.63827 5.59641 6.20509 5.59641 5.68525C5.59641 5.14623 5.1444 4.72266 4.60195 4.72266H2.8743C2.33185 4.72266 1.87988 5.14623 1.87988 5.68525C1.87988 6.20509 2.33185 6.63827 2.8743 6.63827ZM8.58968 6.45538H21.3063C21.7683 6.45538 22.1199 6.11843 22.1199 5.68525C22.1199 5.24246 21.7683 4.90555 21.3063 4.90555H8.58968C8.13767 4.90555 7.77608 5.24246 7.77608 5.68525C7.77608 6.11843 8.13767 6.45538 8.58968 6.45538ZM2.8743 12.462H4.60195C5.1444 12.462 5.59641 12.0289 5.59641 11.4994C5.59641 10.97 5.1444 10.5465 4.60195 10.5465H2.8743C2.33185 10.5465 1.87988 10.97 1.87988 11.4994C1.87988 12.0289 2.33185 12.462 2.8743 12.462ZM8.58968 12.2791H21.3063C21.7683 12.2791 22.1199 11.9326 22.1199 11.4994C22.1199 11.0663 21.7683 10.7294 21.3063 10.7294H8.58968C8.13767 10.7294 7.77608 11.0663 7.77608 11.4994C7.77608 11.9326 8.13767 12.2791 8.58968 12.2791ZM2.8743 18.2762H4.60195C5.1444 18.2762 5.59641 17.843 5.59641 17.3232C5.59641 16.7842 5.1444 16.3606 4.60195 16.3606H2.8743C2.33185 16.3606 1.87988 16.7842 1.87988 17.3232C1.87988 17.843 2.33185 18.2762 2.8743 18.2762ZM8.58968 18.0933H21.3063C21.7683 18.0933 22.1199 17.7564 22.1199 17.3232C22.1199 16.8805 21.7683 16.5435 21.3063 16.5435H8.58968C8.13767 16.5435 7.77608 16.8805 7.77608 17.3232C7.77608 17.7564 8.13767 18.0933 8.58968 18.0933Z" fill="#F84610"/>
</svg>
