<svg width="100" height="100" viewBox="0 0 100 100" fill="none" xmlns="http://www.w3.org/2000/svg">
<path d="M50 3.125C24.1113 3.125 3.125 24.1113 3.125 50C3.125 75.8887 24.1113 96.875 50 96.875C75.8887 96.875 96.875 75.8887 96.875 50C96.875 24.1113 75.8887 3.125 50 3.125ZM50 14.8438C69.416 14.8438 85.1562 30.584 85.1562 50C85.1562 69.416 69.416 85.1562 50 85.1562C30.584 85.1562 14.8438 69.416 14.8438 50C14.8438 30.584 30.584 14.8438 50 14.8438ZM34.2529 26.5625C34.0635 26.5615 33.8611 26.5844 33.6547 26.6236V26.6174C30.0811 27.2885 24.8141 33.4031 27.1361 35.724L41.4246 50.0063L27.1363 64.2887C24.2789 67.1451 32.8541 75.7211 35.7117 72.8641L50 58.5754L64.2883 72.8637C67.1457 75.7207 75.7213 67.1449 72.8637 64.2883L58.5754 50.0061L72.8637 35.724C75.7211 32.8676 67.1459 24.2982 64.2883 27.1547L50 41.4369L35.7117 27.1547C35.3094 26.7551 34.8211 26.5658 34.2527 26.5629L34.2529 26.5625Z" fill="white"/>
</svg>
