<svg width="100" height="100" viewBox="0 0 100 100" fill="none" xmlns="http://www.w3.org/2000/svg">
<path fill-rule="evenodd" clip-rule="evenodd" d="M4 45.8333C4 20.5203 24.5203 0 49.8333 0C75.1462 0 95.6667 20.5203 95.6667 45.8333C95.6667 71.1462 75.1462 91.6667 49.8333 91.6667C24.5203 91.6667 4 71.1462 4 45.8333ZM42.7612 51.6425C42.465 52.9779 43.5992 54.1667 45.0329 54.1667H54.1692C55.2412 54.1667 56.1462 53.4796 56.5267 52.5254C56.9042 51.5787 58.2154 49.8642 59.225 48.9658C60.1779 47.9633 61.1721 47.02 62.1512 46.0908C66.01 42.4292 69.6417 38.9833 69.6417 32.9603C69.6417 22.5125 60.5917 16.6667 50.9613 16.6667C43.5992 16.6667 33.434 20.0252 31.4332 31.2651C31.0298 33.5307 32.9489 35.4167 35.2501 35.4167H41.1345C43.3283 35.4167 44.9633 33.6517 45.7171 31.5917C46.4429 29.6085 47.9079 28.1462 50.9613 28.1462C56.5275 28.1462 56.5267 34.2655 53.3108 38.2679C52.0975 39.7779 50.6763 41.1154 49.27 42.4387C46.4158 45.1242 43.6242 47.7508 42.7612 51.6425ZM58.1662 66.6667C58.1662 71.2692 54.4354 75 49.8329 75C45.2308 75 41.4997 71.2692 41.4997 66.6667C41.4997 62.0642 45.2308 58.3333 49.8329 58.3333C54.4354 58.3333 58.1662 62.0642 58.1662 66.6667Z" fill="white"/>
</svg>
