<svg width="100" height="100" viewBox="0 0 100 100" fill="none" xmlns="http://www.w3.org/2000/svg">
<path d="M52.6846 25.8313H57.5674C57.7277 25.8317 57.8865 25.8004 58.0347 25.7394C58.183 25.6783 58.3177 25.5886 58.4312 25.4754C58.5447 25.3622 58.6347 25.2277 58.6962 25.0796C58.7576 24.9315 58.7893 24.7728 58.7893 24.6125V19.7297C58.7893 19.4056 58.6605 19.0948 58.4314 18.8657C58.2022 18.6365 57.8914 18.5078 57.5674 18.5078H52.6846C52.5243 18.5078 52.3655 18.5394 52.2175 18.6009C52.0694 18.6623 51.9349 18.7524 51.8217 18.8659C51.7085 18.9794 51.6188 19.1141 51.5577 19.2623C51.4966 19.4106 51.4654 19.5694 51.4658 19.7297V24.6125C51.4658 25.2859 52.0111 25.8313 52.6846 25.8313Z" fill="white"/>
<path d="M62.9375 25.8313H67.8203C67.9806 25.8317 68.1394 25.8004 68.2877 25.7394C68.4359 25.6783 68.5706 25.5886 68.6841 25.4754C68.7976 25.3622 68.8877 25.2277 68.9491 25.0796C69.0106 24.9315 69.0422 24.7728 69.0422 24.6125V19.7297C69.0422 19.4056 68.9135 19.0948 68.6843 18.8657C68.4552 18.6365 68.1444 18.5078 67.8203 18.5078H62.9375C62.7772 18.5078 62.6185 18.5394 62.4704 18.6009C62.3223 18.6623 62.1878 18.7524 62.0746 18.8659C61.9614 18.9794 61.8717 19.1141 61.8106 19.2623C61.7496 19.4106 61.7183 19.5694 61.7188 19.7297V24.6125C61.7188 25.2859 62.2656 25.8313 62.9375 25.8313Z" fill="white"/>
<path d="M73.1924 25.8313H78.0752C78.2355 25.8317 78.3943 25.8004 78.5426 25.7394C78.6908 25.6783 78.8255 25.5886 78.939 25.4754C79.0525 25.3622 79.1426 25.2277 79.204 25.0796C79.2654 24.9315 79.2971 24.7728 79.2971 24.6125V19.7297C79.2971 19.4056 79.1683 19.0948 78.9392 18.8657C78.7101 18.6365 78.3993 18.5078 78.0752 18.5078H73.1924C73.0321 18.5078 72.8733 18.5394 72.7253 18.6009C72.5772 18.6623 72.4427 18.7524 72.3295 18.8659C72.2163 18.9794 72.1266 19.1141 72.0655 19.2623C72.0044 19.4106 71.9732 19.5694 71.9736 19.7297V24.6125C71.9736 25.2859 72.5189 25.8313 73.1924 25.8313Z" fill="white"/>
<path d="M83.4453 25.8313H88.3281C88.4884 25.8317 88.6473 25.8004 88.7955 25.7394C88.9437 25.6783 89.0784 25.5886 89.1919 25.4754C89.3054 25.3622 89.3955 25.2277 89.4569 25.0796C89.5184 24.9315 89.55 24.7728 89.55 24.6125V19.7297C89.55 19.4056 89.4213 19.0948 89.1921 18.8657C88.963 18.6365 88.6522 18.5078 88.3281 18.5078H83.4453C83.285 18.5078 83.1263 18.5394 82.9782 18.6009C82.8301 18.6623 82.6956 18.7524 82.5824 18.8659C82.4692 18.9794 82.3795 19.1141 82.3184 19.2623C82.2574 19.4106 82.2262 19.5694 82.2266 19.7297V24.6125C82.2266 25.2859 82.7734 25.8313 83.4453 25.8313Z" fill="white"/>
<path d="M57.5674 74.9023H52.6846C52.5243 74.9023 52.3655 74.934 52.2175 74.9954C52.0694 75.0569 51.9349 75.1469 51.8217 75.2604C51.7085 75.3739 51.6188 75.5086 51.5577 75.6569C51.4966 75.8051 51.4654 75.9639 51.4658 76.1242V81.007C51.4658 81.6805 52.0127 82.2258 52.6846 82.2258H57.5674C57.7277 82.2262 57.8865 82.195 58.0347 82.1339C58.183 82.0728 58.3177 81.9831 58.4312 81.8699C58.5447 81.7567 58.6347 81.6222 58.6962 81.4742C58.7576 81.3261 58.7893 81.1673 58.7893 81.007V76.1242C58.7895 75.9637 58.758 75.8047 58.6967 75.6564C58.6353 75.508 58.5453 75.3733 58.4318 75.2598C58.3183 75.1463 58.1836 75.0563 58.0352 74.9949C57.8869 74.9336 57.7279 74.9021 57.5674 74.9023Z" fill="white"/>
<path d="M62.9375 82.2258H67.8203C67.9806 82.2262 68.1394 82.195 68.2877 82.1339C68.4359 82.0728 68.5706 81.9831 68.6841 81.8699C68.7976 81.7567 68.8877 81.6222 68.9491 81.4742C69.0106 81.3261 69.0422 81.1673 69.0422 81.007V76.1242C69.0424 75.9637 69.0109 75.8047 68.9496 75.6564C68.8883 75.508 68.7983 75.3733 68.6848 75.2598C68.5713 75.1463 68.4365 75.0563 68.2882 74.9949C68.1398 74.9336 67.9808 74.9021 67.8203 74.9023H62.9375C62.7772 74.9023 62.6185 74.934 62.4704 74.9954C62.3223 75.0569 62.1878 75.1469 62.0746 75.2604C61.9614 75.3739 61.8717 75.5086 61.8106 75.6569C61.7496 75.8051 61.7183 75.9639 61.7188 76.1242V81.007C61.7188 81.6789 62.2656 82.2258 62.9375 82.2258Z" fill="white"/>
<path d="M73.1924 82.2258H78.0752C78.2355 82.2262 78.3943 82.195 78.5426 82.1339C78.6908 82.0728 78.8255 81.9831 78.939 81.8699C79.0525 81.7567 79.1426 81.6222 79.204 81.4742C79.2654 81.3261 79.2971 81.1673 79.2971 81.007V76.1242C79.2973 75.9637 79.2658 75.8047 79.2045 75.6564C79.1432 75.508 79.0532 75.3733 78.9397 75.2598C78.8262 75.1463 78.6914 75.0563 78.543 74.9949C78.3947 74.9336 78.2357 74.9021 78.0752 74.9023H73.1924C73.0321 74.9023 72.8733 74.934 72.7253 74.9954C72.5772 75.0569 72.4427 75.1469 72.3295 75.2604C72.2163 75.3739 72.1266 75.5086 72.0655 75.6569C72.0044 75.8051 71.9732 75.9639 71.9736 76.1242V81.007C71.9736 81.6789 72.5189 82.2258 73.1924 82.2258Z" fill="white"/>
<path d="M83.4453 82.2258H88.3281C88.4884 82.2262 88.6473 82.195 88.7955 82.1339C88.9437 82.0728 89.0784 81.9831 89.1919 81.8699C89.3054 81.7567 89.3955 81.6222 89.4569 81.4742C89.5184 81.3261 89.55 81.1673 89.55 81.007V76.1242C89.5502 75.9637 89.5187 75.8047 89.4574 75.6564C89.3961 75.508 89.3061 75.3733 89.1926 75.2598C89.0791 75.1463 88.9443 75.0563 88.796 74.9949C88.6476 74.9336 88.4886 74.9021 88.3281 74.9023H83.4453C83.285 74.9023 83.1263 74.934 82.9782 74.9954C82.8301 75.0569 82.6956 75.1469 82.5824 75.2604C82.4692 75.3739 82.3795 75.5086 82.3184 75.6569C82.2574 75.8051 82.2262 75.9639 82.2266 76.1242V81.007C82.2266 81.6789 82.7734 82.2258 83.4453 82.2258Z" fill="white"/>
<path d="M62.9375 54.0266H67.8203C67.9806 54.027 68.1394 53.9957 68.2877 53.9347C68.4359 53.8736 68.5706 53.7839 68.6841 53.6707C68.7976 53.5575 68.8877 53.423 68.9491 53.2749C69.0106 53.1269 69.0422 52.9681 69.0422 52.8078V47.925C69.0424 47.7645 69.0109 47.6055 68.9496 47.4572C68.8883 47.3088 68.7983 47.174 68.6848 47.0605C68.5713 46.947 68.4365 46.857 68.2882 46.7957C68.1398 46.7344 67.9808 46.7029 67.8203 46.7031H62.9375C62.7772 46.7031 62.6185 46.7348 62.4704 46.7962C62.3223 46.8576 62.1878 46.9477 62.0746 47.0612C61.9614 47.1747 61.8717 47.3094 61.8106 47.4576C61.7496 47.6059 61.7183 47.7647 61.7188 47.925V52.8078C61.7188 53.4813 62.2656 54.0266 62.9375 54.0266Z" fill="white"/>
<path d="M73.1924 54.0266H78.0752C78.2355 54.027 78.3943 53.9957 78.5426 53.9347C78.6908 53.8736 78.8255 53.7839 78.939 53.6707C79.0525 53.5575 79.1426 53.423 79.204 53.2749C79.2654 53.1269 79.2971 52.9681 79.2971 52.8078V47.925C79.2973 47.7645 79.2658 47.6055 79.2045 47.4572C79.1432 47.3088 79.0532 47.174 78.9397 47.0605C78.8262 46.947 78.6914 46.857 78.543 46.7957C78.3947 46.7344 78.2357 46.7029 78.0752 46.7031H73.1924C73.0321 46.7031 72.8733 46.7348 72.7253 46.7962C72.5772 46.8576 72.4427 46.9477 72.3295 47.0612C72.2163 47.1747 72.1266 47.3094 72.0655 47.4576C72.0044 47.6059 71.9732 47.7647 71.9736 47.925V52.8078C71.9736 53.4813 72.5189 54.0266 73.1924 54.0266Z" fill="white"/>
<path d="M52.6846 44.6297H57.5674C58.2439 44.6297 58.7893 44.0828 58.7893 43.4078V38.5266C58.7893 38.2025 58.6605 37.8917 58.4314 37.6626C58.2022 37.4334 57.8914 37.3047 57.5674 37.3047H52.6846C52.5243 37.3047 52.3655 37.3363 52.2175 37.3978C52.0694 37.4592 51.9349 37.5493 51.8217 37.6628C51.7085 37.7763 51.6188 37.911 51.5577 38.0592C51.4966 38.2074 51.4654 38.3663 51.4658 38.5266V43.4078C51.4654 43.5681 51.4966 43.7269 51.5577 43.8752C51.6188 44.0234 51.7085 44.1581 51.8217 44.2716C51.9349 44.3851 52.0694 44.4752 52.2175 44.5366C52.3655 44.5981 52.5243 44.6297 52.6846 44.6297Z" fill="white"/>
<path d="M62.9375 44.6297H67.8203C68.4969 44.6297 69.0422 44.0828 69.0422 43.4078V38.5266C69.0422 38.2025 68.9135 37.8917 68.6843 37.6626C68.4552 37.4334 68.1444 37.3047 67.8203 37.3047H62.9375C62.7772 37.3047 62.6185 37.3363 62.4704 37.3978C62.3223 37.4592 62.1878 37.5493 62.0746 37.6628C61.9614 37.7763 61.8717 37.911 61.8106 38.0592C61.7496 38.2074 61.7183 38.3663 61.7188 38.5266V43.4078C61.7188 44.0844 62.2656 44.6297 62.9375 44.6297Z" fill="white"/>
<path d="M73.1924 44.6297H78.0752C78.7518 44.6297 79.2971 44.0828 79.2971 43.4078V38.5266C79.2971 38.2025 79.1683 37.8917 78.9392 37.6626C78.7101 37.4334 78.3993 37.3047 78.0752 37.3047H73.1924C73.0321 37.3047 72.8733 37.3363 72.7253 37.3978C72.5772 37.4592 72.4427 37.5493 72.3295 37.6628C72.2163 37.7763 72.1266 37.911 72.0655 38.0592C72.0044 38.2074 71.9732 38.3663 71.9736 38.5266V43.4078C71.9732 43.5681 72.0044 43.7269 72.0655 43.8752C72.1266 44.0234 72.2163 44.1581 72.3295 44.2716C72.4427 44.3851 72.5772 44.4752 72.7253 44.5366C72.8733 44.5981 73.0321 44.6297 73.1924 44.6297Z" fill="white"/>
<path d="M83.4453 44.6297H88.3281C89.0047 44.6297 89.55 44.0828 89.55 43.4078V38.5266C89.55 38.2025 89.4213 37.8917 89.1921 37.6626C88.963 37.4334 88.6522 37.3047 88.3281 37.3047H83.4453C83.285 37.3047 83.1263 37.3363 82.9782 37.3978C82.8301 37.4592 82.6956 37.5493 82.5824 37.6628C82.4692 37.7763 82.3795 37.911 82.3184 38.0592C82.2574 38.2074 82.2262 38.3663 82.2266 38.5266V43.4078C82.2266 44.0844 82.7734 44.6297 83.4453 44.6297Z" fill="white"/>
<path d="M52.6846 35.2297H57.5674C58.2439 35.2297 58.7893 34.6828 58.7893 34.0078V29.125C58.7893 28.4531 58.2424 27.9062 57.5674 27.9062H52.6846C52.3613 27.9063 52.0514 28.0347 51.8228 28.2632C51.5942 28.4918 51.4658 28.8018 51.4658 29.125V34.0078C51.4654 34.1681 51.4966 34.3269 51.5577 34.4752C51.6188 34.6234 51.7085 34.7581 51.8217 34.8716C51.9349 34.9851 52.0694 35.0752 52.2175 35.1366C52.3655 35.1981 52.5243 35.2297 52.6846 35.2297Z" fill="white"/>
<path d="M62.9375 35.2297H67.8203C68.4969 35.2297 69.0422 34.6828 69.0422 34.0078V29.125C69.0422 28.4531 68.4953 27.9062 67.8203 27.9062H62.9375C62.6143 27.9063 62.3043 28.0347 62.0757 28.2632C61.8472 28.4918 61.7188 28.8018 61.7188 29.125V34.0078C61.7188 34.6828 62.2656 35.2297 62.9375 35.2297Z" fill="white"/>
<path d="M73.1924 35.2297H78.0752C78.7518 35.2297 79.2971 34.6828 79.2971 34.0078V29.125C79.2971 28.4531 78.7502 27.9062 78.0752 27.9062H73.1924C72.8692 27.9063 72.5592 28.0347 72.3306 28.2632C72.102 28.4918 71.9736 28.8018 71.9736 29.125V34.0078C71.9732 34.1681 72.0044 34.3269 72.0655 34.4752C72.1266 34.6234 72.2163 34.7581 72.3295 34.8716C72.4427 34.9851 72.5772 35.0752 72.7253 35.1366C72.8733 35.1981 73.0321 35.2297 73.1924 35.2297Z" fill="white"/>
<path d="M83.4453 35.2297H88.3281C89.0047 35.2297 89.55 34.6828 89.55 34.0078V29.125C89.55 28.4531 89.0031 27.9062 88.3281 27.9062H83.4453C83.1221 27.9063 82.8121 28.0347 82.5835 28.2632C82.355 28.4918 82.2266 28.8018 82.2266 29.125V34.0078C82.2266 34.6828 82.7734 35.2297 83.4453 35.2297Z" fill="white"/>
<path d="M90.625 3.125H50.3906C47.2672 3.125 44.1406 6.15 44.1422 9.17344V38.2812L27.9234 22.0625V35.2609H3.125V64.7406H27.9234V77.9375L44.1422 61.7172L44.1406 90.8266C44.1406 93.8516 47.2672 96.875 50.3906 96.875H90.625C93.7516 96.875 96.875 93.85 96.875 90.8266V9.17344C96.875 6.15 93.7516 3.125 90.625 3.125ZM87.3516 8.25156C87.7401 8.25136 88.1127 8.40549 88.3876 8.68005C88.6624 8.95462 88.817 9.32712 88.8172 9.71562C88.8174 10.1041 88.6633 10.4768 88.3887 10.7517C88.1141 11.0265 87.7416 11.181 87.3531 11.1813C86.9646 11.1815 86.592 11.0273 86.3171 10.7528C86.0422 10.4782 85.8877 10.1057 85.8875 9.71719C85.8873 9.32869 86.0414 8.95602 86.316 8.68116C86.5906 8.4063 86.9631 8.25177 87.3516 8.25156ZM66.5516 9.03594H74.4641C74.7078 9.03594 74.9016 9.36094 74.9016 9.76562C74.9016 10.1719 74.7078 10.5016 74.4641 10.5016H66.5516C66.3109 10.5016 66.1141 10.1719 66.1141 9.76562C66.1141 9.3625 66.3094 9.03594 66.5516 9.03594ZM76.0016 91.3812C76.0016 91.5255 75.9732 91.6683 75.9179 91.8016C75.8627 91.9349 75.7818 92.056 75.6798 92.158C75.5778 92.26 75.4567 92.3409 75.3235 92.3961C75.1902 92.4513 75.0474 92.4797 74.9031 92.4797H66.1141C65.9698 92.4797 65.827 92.4513 65.6937 92.3961C65.5604 92.3409 65.4393 92.26 65.3373 92.158C65.2353 92.056 65.1544 91.9349 65.0992 91.8016C65.044 91.6683 65.0156 91.5255 65.0156 91.3812V89.1844C65.0156 88.5781 65.5078 88.0859 66.1141 88.0859H74.9031C75.5094 88.0859 76.0016 88.5781 76.0016 89.1844V91.3812ZM92.4812 85.1562H48.5359V57.325L52.1422 53.7188C52.2281 53.9047 52.3797 54.0281 52.6859 54.0281H57.5688C57.7291 54.0285 57.8879 53.9973 58.0361 53.9362C58.1843 53.8752 58.3191 53.7855 58.4326 53.6723C58.5461 53.5591 58.6361 53.4246 58.6976 53.2765C58.759 53.1284 58.7906 52.9697 58.7906 52.8094V47.9266C58.7908 47.766 58.7594 47.6071 58.698 47.4587C58.6367 47.3104 58.5467 47.1756 58.4332 47.0621C58.3197 46.9486 58.1849 46.8586 58.0366 46.7973C57.8882 46.7359 57.7293 46.7045 57.5688 46.7047H52.6859C52.6453 46.7047 52.6281 46.725 52.5891 46.7297L48.5359 42.6766V14.8438H92.4812V85.1562Z" fill="white"/>
</svg>
