<svg width="24" height="19" viewBox="0 0 24 19" fill="none" xmlns="http://www.w3.org/2000/svg">
<path d="M2.66673 0.832031C1.95947 0.832031 1.28118 1.11299 0.781068 1.6131C0.280959 2.11321 0 2.7915 0 3.49876L0 15.4991C0 16.2063 0.280959 16.8846 0.781068 17.3847C1.28118 17.8848 1.95947 18.1658 2.66673 18.1658H8.0002V0.832031H2.66673Z" fill="#009A49"/>
<path d="M8.00098 0.832031H16.0012V18.1658H8.00098V0.832031Z" fill="#EEEEEE"/>
<path d="M21.3335 0.832031H16V18.1658H21.3335C22.0407 18.1658 22.719 17.8848 23.2191 17.3847C23.7192 16.8846 24.0002 16.2063 24.0002 15.4991V3.49876C24.0002 2.7915 23.7192 2.11321 23.2191 1.6131C22.719 1.11299 22.0407 0.832031 21.3335 0.832031Z" fill="#009A49"/>
</svg>
