<svg width="100" height="100" viewBox="0 0 100 100" fill="none" xmlns="http://www.w3.org/2000/svg">
<path d="M76.1214 15.1471H64.4511V5.94082H67.4093V0H32.5907V5.94082H35.5489V15.1469H23.8786C20.1562 15.1469 17.1274 18.1754 17.1274 21.898V85.627C17.1274 89.3494 20.156 92.3781 23.8786 92.3781H29.0091V100H34.9499V92.3781H65.0503V100H70.9911V92.3781H76.1216C79.8441 92.3781 82.8728 89.3496 82.8728 85.627V21.8982C82.8726 18.1754 79.8441 15.1471 76.1214 15.1471ZM35.029 79.7043H29.0882V44.8512H35.029V79.7043ZM41.4894 5.94082H58.5101V15.1469H41.4894V5.94082ZM46.9899 79.7043H41.0491V44.8512H46.9899V79.7043ZM58.9509 79.7043H53.0101V44.8512H58.9509V79.7043ZM61.8815 37.1895H38.1183V28.1477H61.8817L61.8815 37.1895ZM70.9116 79.7043H64.9708V44.8512H70.9116V79.7043Z" fill="white"/>
</svg>
