<svg width="281" height="37" viewBox="0 0 281 37" fill="none" xmlns="http://www.w3.org/2000/svg">
<path d="M24.2296 0.592725V29H19.0419L6.68308 11.1206H6.47502V29H0.468992V0.592725H5.73987L18.0016 18.4582H18.2513V0.592725H24.2296ZM38.7072 29.4161C36.5526 29.4161 34.6893 28.9584 33.1172 28.0429C31.5545 27.1182 30.3477 25.8328 29.497 24.1869C28.6462 22.5316 28.2209 20.6128 28.2209 18.4305C28.2209 16.2297 28.6462 14.3063 29.497 12.6603C30.3477 11.005 31.5545 9.71967 33.1172 8.8042C34.6893 7.87949 36.5526 7.41713 38.7072 7.41713C40.8617 7.41713 42.7204 7.87949 44.2832 8.8042C45.8552 9.71967 47.0666 11.005 47.9173 12.6603C48.7681 14.3063 49.1934 16.2297 49.1934 18.4305C49.1934 20.6128 48.7681 22.5316 47.9173 24.1869C47.0666 25.8328 45.8552 27.1182 44.2832 28.0429C42.7204 28.9584 40.8617 29.4161 38.7072 29.4161ZM38.7349 24.8388C39.7151 24.8388 40.5335 24.5614 41.19 24.0065C41.8466 23.4425 42.3413 22.6749 42.6742 21.704C43.0163 20.733 43.1874 19.628 43.1874 18.3889C43.1874 17.1498 43.0163 16.0447 42.6742 15.0738C42.3413 14.1028 41.8466 13.3353 41.19 12.7712C40.5335 12.2072 39.7151 11.9251 38.7349 11.9251C37.7454 11.9251 36.9132 12.2072 36.2382 12.7712C35.5724 13.3353 35.0684 14.1028 34.7263 15.0738C34.3934 16.0447 34.2269 17.1498 34.2269 18.3889C34.2269 19.628 34.3934 20.733 34.7263 21.704C35.0684 22.6749 35.5724 23.4425 36.2382 24.0065C36.9132 24.5614 37.7454 24.8388 38.7349 24.8388ZM53.0356 29V7.69454H58.7642V11.4119H58.9862C59.3746 10.0896 60.0265 9.09087 60.9419 8.41582C61.8574 7.73153 62.9116 7.38939 64.1045 7.38939C64.4004 7.38939 64.7194 7.40788 65.0616 7.44487C65.4037 7.48186 65.7042 7.53272 65.9632 7.59745V12.8406C65.6857 12.7574 65.302 12.6834 64.8119 12.6187C64.3218 12.5539 63.8733 12.5216 63.4664 12.5216C62.5972 12.5216 61.8204 12.7111 61.1361 13.0903C60.4611 13.4601 59.9248 13.978 59.5271 14.6438C59.1388 15.3096 58.9446 16.0771 58.9446 16.9463V29H53.0356ZM81.4186 7.69454V12.1332H68.5882V7.69454H81.4186ZM71.5011 2.59011H77.41V22.453C77.41 22.9986 77.4932 23.424 77.6597 23.7291C77.8261 24.025 78.0573 24.2331 78.3532 24.3533C78.6584 24.4735 79.0097 24.5336 79.4074 24.5336C79.6848 24.5336 79.9622 24.5105 80.2396 24.4643C80.517 24.4088 80.7297 24.3672 80.8777 24.3394L81.807 28.7365C81.5111 28.8289 81.095 28.9353 80.5586 29.0555C80.0223 29.1849 79.3704 29.2635 78.6029 29.2913C77.1788 29.3468 75.9304 29.1572 74.8578 28.7226C73.7943 28.288 72.9667 27.6129 72.3749 26.6975C71.7831 25.782 71.4918 24.6261 71.5011 23.2298V2.59011ZM91.6344 16.6828V29H85.7255V0.592725H91.468V11.4535H91.7176C92.1985 10.1959 92.9753 9.21108 94.0479 8.49905C95.1206 7.77777 96.4661 7.41713 98.0843 7.41713C99.5639 7.41713 100.854 7.74078 101.954 8.38808C103.064 9.02613 103.924 9.94623 104.534 11.1484C105.154 12.3412 105.459 13.7699 105.45 15.4344V29H99.5407V16.4886C99.55 15.1755 99.2171 14.1537 98.5421 13.4232C97.8763 12.6926 96.9423 12.3274 95.7402 12.3274C94.9357 12.3274 94.2236 12.4984 93.6041 12.8406C92.9938 13.1827 92.5129 13.6821 92.1615 14.3386C91.8194 14.9859 91.6437 15.7673 91.6344 16.6828ZM144.315 10.538H138.24C138.129 9.75204 137.903 9.05388 137.56 8.44356C137.218 7.824 136.779 7.29692 136.243 6.8623C135.706 6.42768 135.087 6.09478 134.384 5.86361C133.691 5.63243 132.937 5.51684 132.123 5.51684C130.653 5.51684 129.372 5.8821 128.281 6.61263C127.19 7.3339 126.344 8.38808 125.743 9.77516C125.142 11.153 124.841 12.8267 124.841 14.7964C124.841 16.8215 125.142 18.523 125.743 19.9008C126.353 21.2786 127.204 22.3189 128.295 23.0217C129.386 23.7245 130.648 24.0759 132.081 24.0759C132.886 24.0759 133.63 23.9695 134.315 23.7569C135.008 23.5442 135.623 23.2344 136.159 22.8275C136.696 22.4114 137.14 21.9074 137.491 21.3156C137.852 20.7238 138.101 20.0487 138.24 19.2905L144.315 19.3182C144.158 20.6221 143.765 21.8797 143.136 23.0911C142.517 24.2932 141.68 25.3705 140.626 26.3229C139.581 27.2662 138.333 28.0152 136.881 28.57C135.438 29.1156 133.806 29.3884 131.984 29.3884C129.451 29.3884 127.185 28.8151 125.188 27.6684C123.2 26.5218 121.628 24.8619 120.472 22.6888C119.325 20.5157 118.752 17.8849 118.752 14.7964C118.752 11.6986 119.334 9.06312 120.499 6.89004C121.665 4.71696 123.246 3.06172 125.243 1.92432C127.241 0.777669 129.488 0.204345 131.984 0.204345C133.63 0.204345 135.156 0.435524 136.562 0.897882C137.977 1.36024 139.23 2.03528 140.321 2.92301C141.412 3.80149 142.3 4.87878 142.984 6.15489C143.677 7.431 144.121 8.89205 144.315 10.538ZM154.587 29.4023C153.227 29.4023 152.016 29.1664 150.953 28.6948C149.889 28.214 149.048 27.5066 148.428 26.5726C147.818 25.6294 147.513 24.455 147.513 23.0495C147.513 21.8658 147.73 20.8717 148.165 20.0672C148.599 19.2627 149.191 18.6154 149.94 18.1253C150.689 17.6352 151.54 17.2654 152.492 17.0157C153.454 16.766 154.462 16.5903 155.516 16.4886C156.755 16.3591 157.754 16.2389 158.512 16.128C159.27 16.0077 159.821 15.832 160.163 15.6009C160.505 15.3697 160.676 15.0275 160.676 14.5744V14.4912C160.676 13.6127 160.399 12.9331 159.844 12.4522C159.298 11.9714 158.521 11.7309 157.514 11.7309C156.45 11.7309 155.604 11.9667 154.975 12.4383C154.346 12.9007 153.93 13.4833 153.727 14.1861L148.262 13.7422C148.539 12.4476 149.085 11.3287 149.898 10.3855C150.712 9.43301 151.762 8.70248 153.047 8.19389C154.342 7.67605 155.84 7.41713 157.541 7.41713C158.725 7.41713 159.858 7.55584 160.94 7.83325C162.031 8.11067 162.997 8.54066 163.839 9.12323C164.689 9.7058 165.36 10.4548 165.85 11.3703C166.34 12.2765 166.585 13.3631 166.585 14.6299V29H160.981V26.0455H160.815C160.473 26.7113 160.015 27.2985 159.442 27.8071C158.868 28.3065 158.179 28.6995 157.375 28.9861C156.57 29.2635 155.641 29.4023 154.587 29.4023ZM156.279 25.3243C157.148 25.3243 157.916 25.1532 158.582 24.811C159.247 24.4596 159.77 23.988 160.149 23.3962C160.528 22.8044 160.718 22.134 160.718 21.385V19.124C160.533 19.2442 160.278 19.3552 159.955 19.4569C159.64 19.5494 159.284 19.6373 158.887 19.7205C158.489 19.7945 158.091 19.8638 157.694 19.9285C157.296 19.984 156.936 20.0349 156.612 20.0811C155.918 20.1828 155.313 20.3447 154.795 20.5666C154.277 20.7885 153.875 21.0891 153.588 21.4682C153.301 21.8381 153.158 22.3004 153.158 22.8553C153.158 23.6598 153.449 24.2747 154.032 24.7001C154.624 25.1162 155.373 25.3243 156.279 25.3243ZM182.502 7.69454V12.1332H169.671V7.69454H182.502ZM172.584 2.59011H178.493V22.453C178.493 22.9986 178.576 23.424 178.743 23.7291C178.909 24.025 179.14 24.2331 179.436 24.3533C179.741 24.4735 180.093 24.5336 180.49 24.5336C180.768 24.5336 181.045 24.5105 181.323 24.4643C181.6 24.4088 181.813 24.3672 181.961 24.3394L182.89 28.7365C182.594 28.8289 182.178 28.9353 181.642 29.0555C181.105 29.1849 180.453 29.2635 179.686 29.2913C178.262 29.3468 177.013 29.1572 175.941 28.7226C174.877 28.288 174.05 27.6129 173.458 26.6975C172.866 25.782 172.575 24.6261 172.584 23.2298V2.59011ZM192.426 29.4023C191.067 29.4023 189.855 29.1664 188.792 28.6948C187.729 28.214 186.887 27.5066 186.268 26.5726C185.657 25.6294 185.352 24.455 185.352 23.0495C185.352 21.8658 185.569 20.8717 186.004 20.0672C186.439 19.2627 187.03 18.6154 187.779 18.1253C188.528 17.6352 189.379 17.2654 190.332 17.0157C191.293 16.766 192.301 16.5903 193.355 16.4886C194.595 16.3591 195.593 16.2389 196.352 16.128C197.11 16.0077 197.66 15.832 198.002 15.6009C198.344 15.3697 198.515 15.0275 198.515 14.5744V14.4912C198.515 13.6127 198.238 12.9331 197.683 12.4522C197.138 11.9714 196.361 11.7309 195.353 11.7309C194.289 11.7309 193.443 11.9667 192.815 12.4383C192.186 12.9007 191.77 13.4833 191.566 14.1861L186.101 13.7422C186.379 12.4476 186.924 11.3287 187.738 10.3855C188.552 9.43301 189.601 8.70248 190.886 8.19389C192.181 7.67605 193.679 7.41713 195.381 7.41713C196.564 7.41713 197.697 7.55584 198.779 7.83325C199.87 8.11067 200.836 8.54066 201.678 9.12323C202.529 9.7058 203.199 10.4548 203.689 11.3703C204.179 12.2765 204.424 13.3631 204.424 14.6299V29H198.821V26.0455H198.654C198.312 26.7113 197.854 27.2985 197.281 27.8071C196.708 28.3065 196.019 28.6995 195.214 28.9861C194.41 29.2635 193.48 29.4023 192.426 29.4023ZM194.118 25.3243C194.988 25.3243 195.755 25.1532 196.421 24.811C197.087 24.4596 197.609 23.988 197.988 23.3962C198.367 22.8044 198.557 22.134 198.557 21.385V19.124C198.372 19.2442 198.118 19.3552 197.794 19.4569C197.48 19.5494 197.124 19.6373 196.726 19.7205C196.328 19.7945 195.931 19.8638 195.533 19.9285C195.136 19.984 194.775 20.0349 194.451 20.0811C193.758 20.1828 193.152 20.3447 192.634 20.5666C192.116 20.7885 191.714 21.0891 191.427 21.4682C191.141 21.8381 190.997 22.3004 190.997 22.8553C190.997 23.6598 191.289 24.2747 191.871 24.7001C192.463 25.1162 193.212 25.3243 194.118 25.3243ZM209.009 36.9895V7.69454H214.834V11.2732H215.098C215.357 10.6999 215.731 10.1173 216.221 9.52548C216.721 8.92442 217.368 8.42507 218.163 8.02744C218.968 7.62057 219.966 7.41713 221.159 7.41713C222.713 7.41713 224.146 7.82401 225.459 8.63776C226.772 9.44226 227.822 10.6583 228.608 12.2858C229.394 13.904 229.787 15.9338 229.787 18.375C229.787 20.7515 229.403 22.7582 228.636 24.3949C227.877 26.0224 226.842 27.2569 225.529 28.0984C224.225 28.9306 222.764 29.3468 221.146 29.3468C219.999 29.3468 219.023 29.1572 218.219 28.7781C217.424 28.3989 216.772 27.9227 216.263 27.3494C215.754 26.7668 215.366 26.1796 215.098 25.5878H214.918V36.9895H209.009ZM214.793 18.3473C214.793 19.6141 214.968 20.7192 215.32 21.6624C215.671 22.6056 216.18 23.3407 216.846 23.8678C217.511 24.3857 218.321 24.6446 219.273 24.6446C220.235 24.6446 221.048 24.381 221.714 23.854C222.38 23.3176 222.884 22.5778 223.226 21.6346C223.578 20.6822 223.753 19.5864 223.753 18.3473C223.753 17.1174 223.582 16.0355 223.24 15.1015C222.898 14.1676 222.394 13.437 221.728 12.9099C221.062 12.3829 220.244 12.1193 219.273 12.1193C218.311 12.1193 217.498 12.3736 216.832 12.8822C216.175 13.3908 215.671 14.1121 215.32 15.046C214.968 15.98 214.793 17.0804 214.793 18.3473ZM247.389 19.9285V7.69454H253.298V29H247.625V25.1301H247.403C246.922 26.3784 246.122 27.3817 245.003 28.14C243.894 28.8983 242.539 29.2774 240.939 29.2774C239.515 29.2774 238.262 28.9538 237.18 28.3065C236.098 27.6592 235.252 26.7391 234.642 25.5462C234.041 24.3533 233.736 22.9246 233.726 21.2601V7.69454H239.635V20.206C239.644 21.4636 239.982 22.4576 240.648 23.1882C241.314 23.9187 242.206 24.2839 243.325 24.2839C244.037 24.2839 244.703 24.1221 245.322 23.7985C245.942 23.4656 246.441 22.9755 246.82 22.3282C247.209 21.6809 247.398 20.881 247.389 19.9285ZM263.933 0.592725V29H258.024V0.592725H263.933ZM279.999 7.69454V12.1332H267.169V7.69454H279.999ZM270.081 2.59011H275.99V22.453C275.99 22.9986 276.074 23.424 276.24 23.7291C276.407 24.025 276.638 24.2331 276.934 24.3533C277.239 24.4735 277.59 24.5336 277.988 24.5336C278.265 24.5336 278.543 24.5105 278.82 24.4643C279.097 24.4088 279.31 24.3672 279.458 24.3394L280.387 28.7365C280.092 28.8289 279.675 28.9353 279.139 29.0555C278.603 29.1849 277.951 29.2635 277.183 29.2913C275.759 29.3468 274.511 29.1572 273.438 28.7226C272.375 28.288 271.547 27.6129 270.955 26.6975C270.364 25.782 270.072 24.6261 270.081 23.2298V2.59011Z" fill="white"/>
</svg>
