<svg width="44" height="44" viewBox="0 0 44 44" fill="none" xmlns="http://www.w3.org/2000/svg">
<path fill-rule="evenodd" clip-rule="evenodd" d="M22 33.5C28.3513 33.5 33.5 28.3513 33.5 22C33.5 15.6487 28.3513 10.5 22 10.5C15.6487 10.5 10.5 15.6487 10.5 22C10.5 28.3513 15.6487 33.5 22 33.5ZM22 29.6667C26.2341 29.6667 29.6667 26.2341 29.6667 22C29.6667 17.7658 26.2341 14.3333 22 14.3333C17.7658 14.3333 14.3333 17.7658 14.3333 22C14.3333 26.2341 17.7658 29.6667 22 29.6667Z" fill="#DF3907"/>
<path d="M33.4997 8.58594C32.4411 8.58594 31.583 9.44407 31.583 10.5026C31.583 11.5611 32.4411 12.4193 33.4997 12.4193C34.5582 12.4193 35.4163 11.5611 35.4163 10.5026C35.4163 9.44407 34.5582 8.58594 33.4997 8.58594Z" fill="#DF3907"/>
<path fill-rule="evenodd" clip-rule="evenodd" d="M2.16993 7.19708C0.916504 9.65707 0.916504 12.8774 0.916504 19.318V24.6846C0.916504 31.1252 0.916504 34.3456 2.16993 36.8054C3.27247 38.9694 5.03174 40.7287 7.19562 41.8311C9.6556 43.0846 12.8759 43.0846 19.3165 43.0846H24.6832C31.1237 43.0846 34.3441 43.0846 36.804 41.8311C38.9679 40.7287 40.7272 38.9694 41.8297 36.8054C43.0832 34.3456 43.0832 31.1252 43.0832 24.6846V19.318C43.0832 12.8774 43.0832 9.65707 41.8297 7.19708C40.7272 5.03321 38.9679 3.27394 36.804 2.17139C34.3441 0.917969 31.1237 0.917969 24.6832 0.917969H19.3165C12.8759 0.917969 9.6556 0.917969 7.19562 2.17139C5.03174 3.27394 3.27247 5.03321 2.16993 7.19708ZM24.6832 4.7513H19.3165C16.0329 4.7513 13.8008 4.75429 12.0755 4.89524C10.3949 5.03255 9.53545 5.28143 8.93591 5.58691C7.49333 6.32195 6.32049 7.4948 5.58545 8.93738C5.27997 9.53691 5.03109 10.3963 4.89378 12.077C4.75283 13.8023 4.74984 16.0344 4.74984 19.318V24.6846C4.74984 27.9683 4.75283 30.2002 4.89378 31.9256C5.03109 33.6063 5.27997 34.4658 5.58545 35.0653C6.32049 36.5078 7.49333 37.6806 8.93591 38.4156C9.53545 38.7211 10.3949 38.9701 12.0755 39.1074C13.8008 39.2482 16.0329 39.2513 19.3165 39.2513H24.6832C27.9668 39.2513 30.1988 39.2482 31.9241 39.1074C33.6049 38.9701 34.4643 38.7211 35.0638 38.4156C36.5063 37.6806 37.6791 36.5078 38.4142 35.0653C38.7197 34.4658 38.9687 33.6063 39.1059 31.9256C39.2468 30.2002 39.2498 27.9683 39.2498 24.6846V19.318C39.2498 16.0344 39.2468 13.8023 39.1059 12.077C38.9687 10.3963 38.7197 9.53691 38.4142 8.93738C37.6791 7.4948 36.5063 6.32195 35.0638 5.58691C34.4643 5.28143 33.6049 5.03255 31.9241 4.89524C30.1988 4.75429 27.9668 4.7513 24.6832 4.7513Z" fill="#DF3907"/>
</svg>
