<svg width="44" height="46" viewBox="0 0 44 46" fill="none" xmlns="http://www.w3.org/2000/svg">
<path d="M2.08638 0.046875H6.21551L8.87525 8.23128H9.13247L11.669 0.046875H15.8336L11.0622 12.0265V20.5247H6.96373V12.4076L2.08638 0.046875ZM16.2672 8.86567C16.2672 7.6641 16.7609 6.70915 17.749 5.99624C18.7359 5.28342 20.0624 4.92701 21.7291 4.92701C23.2468 4.92701 24.4898 5.30363 25.4582 6.05455C26.4289 6.80546 26.913 7.77164 26.913 8.95533V16.9694C26.913 18.2965 26.4367 19.3388 25.4874 20.0943C24.5369 20.8497 23.2277 21.2286 21.5626 21.2286C19.9581 21.2286 18.6748 20.8385 17.7114 20.0585C16.7492 19.2784 16.2672 18.2293 16.2672 16.9088V8.86567ZM20.0417 17.2002C20.0417 17.6284 20.1711 17.9557 20.4329 18.1911C20.6941 18.4242 21.0668 18.5385 21.5516 18.5385C22.0486 18.5385 22.4437 18.422 22.7357 18.1844C23.0282 17.9446 23.1751 17.6172 23.1751 17.2002V8.74905C23.1751 8.41052 23.0249 8.13703 22.7268 7.9286C22.4287 7.72007 22.0369 7.61468 21.5516 7.61468C21.1049 7.61468 20.7405 7.72007 20.4615 7.9286C20.1813 8.13703 20.0417 8.41052 20.0417 8.74905V17.2002ZM40.3273 5.17587V20.6929H36.6542V18.9802C35.9762 19.6124 35.2723 20.092 34.5392 20.4239C33.8073 20.7512 33.0956 20.917 32.4073 20.917C31.5578 20.917 30.9166 20.6861 30.4862 20.2243C30.0557 19.7625 29.8406 19.0698 29.8406 18.1463V5.17587H33.5147V17.0703C33.5147 17.4402 33.5921 17.7047 33.7456 17.8705C33.9004 18.0342 34.1492 18.1171 34.4933 18.1171C34.7644 18.1171 35.1064 18.0073 35.5175 17.7898C35.9312 17.5724 36.3099 17.2944 36.654 16.9559V5.17587H40.3273ZM36.8852 32.6388C36.7048 32.4392 36.4177 32.3362 36.0232 32.3362C35.6109 32.3362 35.315 32.4392 35.1357 32.6388C34.9563 32.8405 34.8667 33.1745 34.8667 33.6408V34.607H37.1553V33.6408C37.1553 33.1745 37.0656 32.8405 36.8852 32.6388ZM26.0298 39.9131C26.227 39.9937 26.4356 40.0318 26.6552 40.0318C26.9736 40.0318 27.2044 39.9556 27.3547 39.7987C27.5047 39.644 27.5787 39.3862 27.5787 39.0321V33.4457C27.5787 33.0692 27.4868 32.7845 27.3031 32.5894C27.1181 32.3944 26.8481 32.298 26.4984 32.298C26.3134 32.298 26.1307 32.3338 25.9501 32.4056C25.7697 32.4796 25.5916 32.5939 25.4156 32.7463V39.5207C25.6263 39.7045 25.8314 39.8345 26.0298 39.9131ZM43.0679 28.0859C43.0679 25.3959 40.3048 23.2147 36.8998 23.2147C32.0421 23.051 27.0712 22.9793 21.9999 22.9882C16.9303 22.9792 11.9593 23.0509 7.09993 23.2147C3.69656 23.2147 0.933688 25.3958 0.933688 28.0859C0.729113 30.2133 0.640527 32.3428 0.648434 34.4725C0.640617 36.602 0.729113 38.7316 0.933688 40.8613C0.933688 43.549 3.69656 45.7301 7.09993 45.7301C11.9593 45.8915 16.9303 45.9633 21.9999 45.9566C27.0712 45.9633 32.0421 45.8915 36.8998 45.7301C40.3048 45.7301 43.0679 43.549 43.0679 40.8613C43.2718 38.7316 43.3602 36.602 43.3513 34.4725C43.3602 32.3428 43.2718 30.2133 43.0679 28.0859ZM9.89353 41.6414V41.8028H6.97604V41.6414V28.8997H3.95765V28.7405V26.7096V26.5505H12.9126V26.7096V28.7405V28.8997H9.89353V41.6414ZM20.272 30.6683V41.6414V41.8028H17.6817V41.6414V40.5722C17.2031 41.0271 16.7071 41.3701 16.191 41.6078C15.6738 41.8431 15.1728 41.9619 14.6863 41.9619C14.0878 41.9619 13.6366 41.796 13.3328 41.4665C13.0285 41.1348 12.8766 40.6371 12.8766 39.9735V39.8121V30.6683V30.5091H15.4681V30.6683V39.0432C15.4681 39.3055 15.5219 39.4982 15.63 39.6149C15.7393 39.7336 15.9152 39.792 16.1579 39.792C16.349 39.792 16.5894 39.7135 16.8809 39.5588C17.1711 39.4018 17.4379 39.2024 17.6817 38.9603V30.6683V30.5091H20.272V30.6683ZM30.2453 33.3202V39.3346V39.4961C30.2453 40.2874 30.0424 40.8926 29.6368 41.3141C29.2309 41.731 28.6436 41.9417 27.8769 41.9417C27.3703 41.9417 26.9199 41.8611 26.523 41.6996C26.1252 41.536 25.7564 41.2849 25.4157 40.9464V41.6413V41.8027H22.8008V41.6413V26.7095V26.5504H25.4157V26.7095V31.4081C25.7654 31.0673 26.1352 30.8096 26.5276 30.6347C26.921 30.4576 27.319 30.368 27.7201 30.368C28.5383 30.368 29.166 30.6056 29.5974 31.0809C30.029 31.5561 30.2453 32.2488 30.2453 33.159V33.3202ZM39.8217 33.661V36.3354V36.4968H34.8667V38.4358C34.8667 39.0209 34.9518 39.4266 35.1222 39.6531C35.2936 39.8795 35.5851 39.9938 35.9975 39.9938C36.4268 39.9938 36.7283 39.8974 36.8998 39.7046C37.0701 39.5141 37.1553 39.0904 37.1553 38.4358V37.8238V37.6625H39.8218V37.8238V38.4986V38.6599C39.8218 39.8009 39.4979 40.6596 38.8479 41.2379C38.1988 41.8163 37.2293 42.1032 35.9392 42.1032C34.7792 42.1032 33.8669 41.7961 33.1999 41.1842C32.5342 40.5722 32.2002 39.7293 32.2002 38.6599V38.4986V33.661V33.5019C32.2002 32.5357 32.5666 31.7489 33.2975 31.1391C34.0293 30.5316 34.9766 30.2267 36.1355 30.2267C37.3213 30.2267 38.2313 30.5092 38.8681 31.0718C39.5025 31.6346 39.8218 32.4461 39.8218 33.5019V33.661H39.8217Z" fill="#DF3907"/>
</svg>
